HIERARCHY
ROOT hips
{
  OFFSET 0 10.6860622 2.3727825e-15
  CHANNELS 6 Xposition Yposition Zposition Yrotation Xrotation Zrotation
  JOINT leftUpperLeg
  {
    OFFSET 0.6642549969 -0.9402397400000004 0
    CHANNELS 3 Yrotation Xrotation Zrotation
    JOINT leftLowerLeg
    {
      OFFSET 0 -3.997221335632195 0
      CHANNELS 3 Yrotation Xrotation Zrotation
      JOINT leftFoot
      {
        OFFSET -0.13777839790000004 -4.6145792000000005 -0.22186036399999998
        CHANNELS 3 Yrotation Xrotation Zrotation
        JOINT leftToes
        {
          OFFSET -0.03777410834999995 -0.9130806927000008 0.85230013
          CHANNELS 3 Yrotation Xrotation Zrotation
          End Site
          {
            OFFSET -0.03777410834999995 -0.9130806927000008 0.85230013
          }
        }
      }
    }
  }
  JOINT rightUpperLeg
  {
    OFFSET -0.6642778626 -0.9402397400000004 0
    CHANNELS 3 Yrotation Xrotation Zrotation
    JOINT rightLowerLeg
    {
      OFFSET 0 -3.997221452859387 0
      CHANNELS 3 Yrotation Xrotation Zrotation
      JOINT rightFoot
      {
        OFFSET 0.1377926176 -4.6145792000000005 -0.22185782299999995
        CHANNELS 3 Yrotation Xrotation Zrotation
        JOINT rightToes
        {
          OFFSET 0.037780746850000047 -0.9130806927000008 0.85230167
          CHANNELS 3 Yrotation Xrotation Zrotation
          End Site
          {
            OFFSET 0.037780746850000047 -0.9130806927000008 0.85230167
          }
        }
      }
    }
  }
  JOINT spine
  {
    OFFSET 0 0.13988381660000015 0
    CHANNELS 3 Yrotation Xrotation Zrotation
    JOINT chest
    {
      OFFSET 0 0.6191039003973773 0
      CHANNELS 3 Yrotation Xrotation Zrotation
      JOINT upperChest
      {
        OFFSET 0 0.9855186130586943 0
        CHANNELS 3 Yrotation Xrotation Zrotation
        JOINT leftShoulder
        {
          OFFSET 0.1807663869 1.5087829790000005 0
          CHANNELS 3 Yrotation Xrotation Zrotation
          JOINT leftUpperArm
          {
            OFFSET 0.5985063006419806 0 0
            CHANNELS 3 Yrotation Xrotation Zrotation
            JOINT leftLowerArm
            {
              OFFSET 2.2993332369501065 0 0
              CHANNELS 3 Yrotation Xrotation Zrotation
              JOINT leftHand
              {
                OFFSET 2.395047042602395 0 0
                CHANNELS 3 Yrotation Xrotation Zrotation
                JOINT leftIndexProximal
                {
                  OFFSET 0.5766295810000004 0.04556643899499946 0.17265095988184
                  CHANNELS 3 Yrotation Xrotation Zrotation
                  JOINT leftIndexIntermediate
                  {
                    OFFSET 0.2957229000000008 -0.019352197700001517 -0.007932640616999987
                    CHANNELS 3 Yrotation Xrotation Zrotation
                    JOINT leftIndexDistal
                    {
                      OFFSET 0.19008243099999922 -0.012484908149998475 -0.002786250786000012
                      CHANNELS 3 Yrotation Xrotation Zrotation
                      End Site
                      {
                        OFFSET 0.19008243099999922 -0.012484908149998475 -0.002786250786000012
                      }
                    }
                  }
                }
                JOINT leftMiddleProximal
                {
                  OFFSET 0.5834975091000001 0.0524350405149987 0.02204081888183999
                  CHANNELS 3 Yrotation Xrotation Zrotation
                  JOINT leftMiddleIntermediate
                  {
                    OFFSET 0.33880573540000003 -0.019871473270000717 -0.00000971183179999946
                    CHANNELS 3 Yrotation Xrotation Zrotation
                    JOINT leftMiddleDistal
                    {
                      OFFSET 0.20676022730000088 -0.012221336379999448 0.0001471936708000235
                      CHANNELS 3 Yrotation Xrotation Zrotation
                      End Site
                      {
                        OFFSET 0.20676022730000088 -0.012221336379999448 0.0001471936708000235
                      }
                    }
                  }
                }
                JOINT leftLittleProximal
                {
                  OFFSET 0.5344154683999995 -0.012880921405001189 -0.24414037221816004
                  CHANNELS 3 Yrotation Xrotation Zrotation
                  JOINT leftLittleIntermediate
                  {
                    OFFSET 0.21758961730000093 -0.011650919939999227 0.011893592810000034
                    CHANNELS 3 Yrotation Xrotation Zrotation
                    JOINT leftLittleDistal
                    {
                      OFFSET 0.1475273964999999 -0.008152365682999818 0.006001092492999946
                      CHANNELS 3 Yrotation Xrotation Zrotation
                      End Site
                      {
                        OFFSET 0.1475273964999999 -0.008152365682999818 0.006001092492999946
                      }
                    }
                  }
                }
                JOINT leftRingProximal
                {
                  OFFSET 0.5799399463000003 0.026911854694997794 -0.12150566991816003
                  CHANNELS 3 Yrotation Xrotation Zrotation
                  JOINT leftRingIntermediate
                  {
                    OFFSET 0.26167887460000006 -0.013480186499999602 0.010996293000000053
                    CHANNELS 3 Yrotation Xrotation Zrotation
                    JOINT leftRingDistal
                    {
                      OFFSET 0.17667108799999987 -0.008990287899999228 0.0055541023999999065
                      CHANNELS 3 Yrotation Xrotation Zrotation
                      End Site
                      {
                        OFFSET 0.17667108799999987 -0.008990287899999228 0.0055541023999999065
                      }
                    }
                  }
                }
                JOINT leftThumbProximal
                {
                  OFFSET 0.11018806699999972 -0.09448718900500053 0.17047963138184
                  CHANNELS 3 Yrotation Xrotation Zrotation
                  JOINT leftThumbIntermediate
                  {
                    OFFSET 0.31062601459999983 -0.08126270900000132 0.15443142000000007
                    CHANNELS 3 Yrotation Xrotation Zrotation
                    JOINT leftThumbDistal
                    {
                      OFFSET 0.21627175790000086 -0.08833193599999878 0.018771167799999988
                      CHANNELS 3 Yrotation Xrotation Zrotation
                      End Site
                      {
                        OFFSET 0.21627175790000086 -0.08833193599999878 0.018771167799999988
                      }
                    }
                  }
                }
              }
            }
          }
        }
        JOINT neck
        {
          OFFSET 0 1.5463305265074576 0
          CHANNELS 3 Yrotation Xrotation Zrotation
          JOINT head
          {
            OFFSET 0 0.8456443600000344 0
            CHANNELS 3 Yrotation Xrotation Zrotation
            JOINT leftEye
            {
              OFFSET 0.30408573140000006 0.5104519199999995 0.1276382305
              CHANNELS 3 Yrotation Xrotation Zrotation
              End Site
              {
                OFFSET 0.30408573140000006 0.5104519199999995 0.1276382305
              }
            }
            JOINT rightEye
            {
              OFFSET -0.30409491089999996 0.5104519199999995 0.1276379445
              CHANNELS 3 Yrotation Xrotation Zrotation
              End Site
              {
                OFFSET -0.30409491089999996 0.5104519199999995 0.1276379445
              }
            }
            JOINT jaw
            {
              OFFSET -3.155239131000001e-7 -0.11984121820000082 0.60178107
              CHANNELS 3 Yrotation Xrotation Zrotation
              End Site
              {
                OFFSET -3.155239131000001e-7 -0.11984121820000082 0.60178107
              }
            }
          }
        }
        JOINT rightShoulder
        {
          OFFSET -0.1807303465 1.5087829790000005 0
          CHANNELS 3 Yrotation Xrotation Zrotation
          JOINT rightUpperArm
          {
            OFFSET -0.5985063796536958 0 0
            CHANNELS 3 Yrotation Xrotation Zrotation
            JOINT rightLowerArm
            {
              OFFSET -2.2993322059002854 0 0
              CHANNELS 3 Yrotation Xrotation Zrotation
              JOINT rightHand
              {
                OFFSET -2.395045314457259 0 0
                CHANNELS 3 Yrotation Xrotation Zrotation
                JOINT rightIndexProximal
                {
                  OFFSET -0.5764487688300002 0.0441371204405987 0.17361932004999997
                  CHANNELS 3 Yrotation Xrotation Zrotation
                  JOINT rightIndexIntermediate
                  {
                    OFFSET -0.29573011380000047 -0.01934826376999843 -0.007698921482999974
                    CHANNELS 3 Yrotation Xrotation Zrotation
                    JOINT rightIndexDistal
                    {
                      OFFSET -0.19008373999999884 -0.012503266380000655 -0.0026365778999999897
                      CHANNELS 3 Yrotation Xrotation Zrotation
                      End Site
                      {
                        OFFSET -0.19008373999999884 -0.012503266380000655 -0.0026365778999999897
                      }
                    }
                  }
                }
                JOINT rightMiddleProximal
                {
                  OFFSET -0.5834852037300005 0.05211639405060153 0.02307162440000001
                  CHANNELS 3 Yrotation Xrotation Zrotation
                  JOINT rightMiddleIntermediate
                  {
                    OFFSET -0.33880114510000003 -0.019952774050000954 0.0002455003561999819
                    CHANNELS 3 Yrotation Xrotation Zrotation
                    JOINT rightMiddleDistal
                    {
                      OFFSET -0.20675694929999955 -0.012273788999999091 0.00030209124000002766
                      CHANNELS 3 Yrotation Xrotation Zrotation
                      End Site
                      {
                        OFFSET -0.20675694929999955 -0.012273788999999091 0.00030209124000002766
                      }
                    }
                  }
                }
                JOINT rightLittleProximal
                {
                  OFFSET -0.5346811737299992 -0.011214256288399227 -0.24363941305000003
                  CHANNELS 3 Yrotation Xrotation Zrotation
                  JOINT rightLittleIntermediate
                  {
                    OFFSET -0.21757715980000092 -0.011771559690000988 0.01201554387
                    CHANNELS 3 Yrotation Xrotation Zrotation
                    JOINT rightLittleDistal
                    {
                      OFFSET -0.1475201849000004 -0.00822055339600003 0.006082065407000015
                      CHANNELS 3 Yrotation Xrotation Zrotation
                      End Site
                      {
                        OFFSET -0.1475201849000004 -0.00822055339600003 0.006082065407000015
                      }
                    }
                  }
                }
                JOINT rightRingProximal
                {
                  OFFSET -0.5800810755299999 0.027657985680600072 -0.12066365025000003
                  CHANNELS 3 Yrotation Xrotation Zrotation
                  JOINT rightRingIntermediate
                  {
                    OFFSET -0.26166445029999974 -0.013623118409999302 0.011164098990000045
                    CHANNELS 3 Yrotation Xrotation Zrotation
                    JOINT rightRingDistal
                    {
                      OFFSET -0.17666387530000027 -0.009072900100000503 0.005668185599999959
                      CHANNELS 3 Yrotation Xrotation Zrotation
                      End Site
                      {
                        OFFSET -0.17666387530000027 -0.009072900100000503 0.005668185599999959
                      }
                    }
                  }
                }
                JOINT rightThumbProximal
                {
                  OFFSET -0.10997596379000074 -0.09577489355940072 0.16989765924999997
                  CHANNELS 3 Yrotation Xrotation Zrotation
                  JOINT rightThumbIntermediate
                  {
                    OFFSET -0.31036620999999986 -0.08229339117999834 0.15440884469999996
                    CHANNELS 3 Yrotation Xrotation Zrotation
                    JOINT rightThumbDistal
                    {
                      OFFSET -0.21631306399999906 -0.08825326400000111 0.018656797720000014
                      CHANNELS 3 Yrotation Xrotation Zrotation
                      End Site
                      {
                        OFFSET -0.21631306399999906 -0.08825326400000111 0.018656797720000014
                      }
                    }
                  }
                }
              }
            }
          }
        }
      }
    }
  }
}
MOTION
Frames: 9
Frame Time: 0.03333333333333333
0 11.682712981546562 0 0 0 0 0 0 -5.826343164929014 -0.3712483961610101 -3.6333298826370974 5.838118207697276 0 0 0 0 0 0 0 0 5.826343164929014 0.3712483961610101 -3.6333298826370974 -5.838118207697276 0 0 0 0 0 0 0 -4.610651315171937 0 0 3.0831277533083026 0 0 0 0 0 1.5275236235667615 0 0 0 0 0 0 0 0 0 0 0 0 0 0 0 0 0 0 0 0 0 0 0 0 0 0 0 0 0 0 0 0 0 0 0 0 0 0 0 0 0 0 0 0 0 0 0 0 0 0 0 0 0 0 0 0 1.5275236235667615 0 0 0 0 0 0 0 0 0 0 0 0 0 0 1.5275236235667615 0 0 0 0 0 0 0 0 0 0 0 0 0 0 0 0 0 0 0 0 0 0 0 0 0 0 0 0 0 0 0 0 0 0 0 0 0 0 0 0 0 0 0 0 0 0 0 0 0 0 0 0 0 0 0
0.11528199550955653 -0.21041470964307968 3.094923875763971 0 39.997599049757774 0 22.138370409722224 -68.14763100747034 -7.51197867695506 5.335339592171966 26.951177489234315 3.452854894909512 11.077007001046276 9.857236841394053 5.976125234930394 0 0 0 -15.567103411413116 -67.97957168401652 0.8657162487669159 -4.983325936189219 25.514713132649284 -3.2541187738460335 -12.971456348302299 12.012510478634299 -4.624952513505544 0 0 0 -0.4474554178042311 -5.884131711008238 0.32281531455439944 -2.0519283111674484 -20.991546470284387 2.2248864174111644 0 0 0 -24.070781579357273 32.198456771304976 -32.848490650569204 40.92455504501344 -56.46018869566538 -79.64022017185951 1.1114448847908696 -11.628157782151412 -108.47057418013412 96.61161832826939 46.76072165018383 138.12032734588496 0 0 0 0 0 0 0 0 0 0 0 0 0 0 0 0 0 0 0 0 0 0 0 0 0 0 0 0 0 0 0 0 0 0 0 0 0 0 0 0 0 0 0 0 0 0.15957427179474343 1.6967556737761116 0.26851595721982463 0 0.3164840007798236 0 0 0 0 0 0 0 0 0 0 19.917812661154585 34.080806001158834 29.82994967019945 -41.461621798817454 -56.47477862196243 79.20542889483204 -1.23496440920236 -11.856282469774818 106.80662907115628 -104.74057287435434 51.36451087012821 -138.78230020310005 0 0 0 0 0 0 0 0 0 0 0 0 0 0 0 0 0 0 0 0 0 0 0 0 0 0 0 0 0 0 0 0 0 0 0 0 0 0 0 0 0 0 0 0 0
0.11528199550955653 -0.21041470964307968 3.1436531765423026 0 38.61798946917451 0 21.731016194358645 -66.61004925177754 -6.6283938314156545 5.335340425237747 26.951185151611067 3.4528558426951346 10.632880838064466 9.439454018091402 5.864799969546751 0 0 0 -15.701276553002538 -66.43709632059554 0.5247926730318783 -4.983325936189219 25.514713132649284 -3.2541187738460335 -12.476963731145688 11.577957976354199 -4.512541694690146 0 0 0 -0.44710078385434426 -5.4400948917615715 0.3192454141754268 -2.0318373787580803 -19.449909291688257 2.1664836708014445 0 0 0 -24.116909698800363 31.842735286213056 -32.82029492686713 40.92455504501344 -56.46018869566538 -79.64022017185951 1.1375315009970506 -11.675242051802844 -108.05842184892661 97.02573334581247 47.29036278744845 138.6043100549962 0 0 0 0 0 0 0 0 0 0 0 0 0 0 0 0 0 0 0 0 0 0 0 0 0 0 0 0 0 0 0 0 0 0 0 0 0 0 0 0 0 0 0 0 0 0.2777294429754427 1.8255667880964637 0.5531920070838258 0 0.43319300036898933 0 0 0 0 0 0 0 0 0 0 20.004521774871833 33.72430118186708 29.840583763485405 -41.46163025689507 -56.474784805323104 79.20543381070793 -1.2349497663315436 -11.856286831700238 106.80662740091215 -104.74057287435434 51.36451087012821 -138.78230020310005 0 0 0 0 0 0 0 0 0 0 0 0 0 0 0 0 0 0 0 0 0 0 0 0 0 0 0 0 0 0 0 0 0 0 0 0 0 0 0 0 0 0 0 0 0
0.11528199550955653 -0.21041470964307968 3.1923822089283624 0 37.23513133771289 0 21.402704933533116 -65.06531207398577 -5.819610208308602 5.335339592171966 26.951177489234315 3.452854894909512 10.18990559567712 9.020644366577256 5.756842186318249 0 0 0 -15.849836967867182 -64.89000819529377 0.19403166372712594 -4.983326407419278 25.514715024721493 -3.254118988651325 -11.983835458810947 11.142244447290443 -4.4040687713724935 0 0 0 -0.44677334333800434 -4.99595104797504 0.31567898365354014 -2.0135297438177853 -17.903722119785446 2.109013234213785 0 0 0 -24.16307630999982 31.486978498190187 -32.79187319804517 40.924559715197134 -56.46018869566538 -79.64022584354358 1.163289860378875 -11.722519173729857 -107.64615109481028 97.4508648376236 47.817875081144535 139.09907827000146 0 0 0 0 0 0 0 0 0 0 0 0 0 0 0 0 0 0 0 0 0 0 0 0 0 0 0 0 0 0 0 0 0 0 0 0 0 0 0 0 0 0 0 0 0 0.39662451176954266 1.9538879188954652 0.8383739011602145 0 0.5499229815339023 0 0 0 0 0 0 0 0 0 0 20.090797325444928 33.36771711980163 29.85051927272657 -41.461621798817454 -56.47477862196243 79.20542889483204 -1.234947183599555 -11.856278980234533 106.80661470022872 -104.74057287435434 51.36451087012821 -138.78230020310005 0 0 0 0 0 0 0 0 0 0 0 0 0 0 0 0 0 0 0 0 0 0 0 0 0 0 0 0 0 0 0 0 0 0 0 0 0 0 0 0 0 0 0 0 0
0.11528199550955653 -0.21041470964307968 3.2411117780989653 0 35.849417657483315 0 21.140520325382273 -63.51440733276191 -5.072688299881573 5.335340425237747 26.951185151611067 3.4528558426951346 9.74805912148726 8.60086000660028 5.65224217489 0 0 0 -16.010718613270804 -63.338920462075855 -0.12866306035524117 -4.983325936189219 25.514713132649284 -3.2541187738460335 -11.492050534354798 10.70543434255094 -4.299531910842531 0 0 0 -0.4464741305525127 -4.551713570912982 0.31211667861359793 -1.9969494421610237 -16.353519541868796 2.052388744058755 0 0 0 -24.209275148700037 31.131185141739074 -32.763213068369154 40.924559715197134 -56.46018869566538 -79.64022584354358 1.1887131854933528 -11.769987534788651 -107.23373666764364 97.88741135939824 48.34305368762953 139.60505582853708 0 0 0 0 0 0 0 0 0 0 0 0 0 0 0 0 0 0 0 0 0 0 0 0 0 0 0 0 0 0 0 0 0 0 0 0 0 0 0 0 0 0 0 0 0 0.5162577085791465 2.0817124462014056 1.1240612513721229 0 0.6666750169078277 0 0 0 0 0 0 0 0 0 0 20.176670107939465 33.01107364324412 29.859786909894325 -41.46163025689507 -56.474784805323104 79.20543381070793 -1.2349497663315436 -11.856286831700238 106.80662740091215 -104.74057663370998 51.36449446096742 -138.7823107603195 0 0 0 0 0 0 0 0 0 0 0 0 0 0 0 0 0 0 0 0 0 0 0 0 0 0 0 0 0 0 0 0 0 0 0 0 0 0 0 0 0 0 0 0 0
0.11528199550955653 -0.21041470964307968 3.289841078877297 0 34.46126860405996 0 20.934347666334517 -61.95835754518074 -4.377467029456221 5.335339592171966 26.951177489234315 3.452854894909512 9.307315111819763 8.180149035456235 5.5509974804986815 0 0 0 -16.182316621553195 -61.78444884403756 -0.44493667250468827 -4.983325936189219 25.514713132649284 -3.2541187738460335 -11.001581430037572 10.267593925041577 -4.198917147287765 0 0 0 -0.4462031437925078 -4.10739661980467 0.30855920703481576 -1.9820460292041862 -14.799856387376217 1.9965306679320363 0 0 0 -24.255531622551594 30.77538570897866 -32.73433880044178 40.924537606756004 -56.46018869566538 -79.64019929961938 1.2137716889700785 -11.817652499999008 -106.82121268910748 98.33568797809585 48.86580334574279 140.12254792909053 0 0 0 0 0 0 0 0 0 0 0 0 0 0 0 0 0 0 0 0 0 0 0 0 0 0 0 0 0 0 0 0 0 0 0 0 0 0 0 0 0 0 0 0 0 0.6366260640320793 2.2090331995201886 1.4102504413865202 0 0.7834480184314935 0 0 0 0 0 0 0 0 0 0 20.26214061720208 32.65438207582017 29.86838580364423 -41.461621798817454 -56.47477862196243 79.20542889483204 -1.2349505294912113 -11.856296427936408 106.80663008013092 -104.74057287435434 51.36451087012821 -138.78230020310005 0 0 0 0 0 0 0 0 0 0 0 0 0 0 0 0 0 0 0 0 0 0 0 0 0 0 0 0 0 0 0 0 0 0 0 0 0 0 0 0 0 0 0 0 0
0.11528199550955653 -0.21041470964307968 3.338570111263357 0 33.071062276875125 0 20.77604774691585 -60.39806938068969 -3.72576952536375 5.3353381617007685 26.951177489234315 3.4528553729386857 8.867652075501136 7.758562467458852 5.453096759406856 0 0 0 -16.363381339614307 -60.227309856423 -0.7560876770882183 -4.983325607476393 25.514709348504947 -3.2541185377183655 -10.512399181755269 9.828782625591954 -4.102217626299913 0 0 0 -0.445959188434035 -3.6630117073116506 0.3050042112515606 -1.9687764873298432 -13.243303375616579 1.9413625309177627 0 0 0 -24.3018094264286 30.419554741828353 -32.705214954575524 40.92455504501344 -56.46018869566538 -79.64022017185951 1.2384970814512068 -11.865453135821246 -106.40854533125123 98.79609871686982 49.38598672198519 140.65194940300017 0 0 0 0 0 0 0 0 0 0 0 0 0 0 0 0 0 0 0 0 0 0 0 0 0 0 0 0 0 0 0 0 0 0 0 0 0 0 0 0 0 0 0 0 0 0.75772749070872 2.3358419233768855 1.6969388924563493 0 0.9002429531000895 0 0 0 0 0 0 0 0 0 0 20.347216417771563 32.2976373322668 29.876312941655726 -41.461621798817454 -56.47477862196243 79.20542889483204 -1.23496440920236 -11.856282469774818 106.80662907115628 -104.74057287435434 51.36451087012821 -138.78230020310005 0 0 0 0 0 0 0 0 0 0 0 0 0 0 0 0 0 0 0 0 0 0 0 0 0 0 0 0 0 0 0 0 0 0 0 0 0 0 0 0 0 0 0 0 0
0.11528199550955653 -0.21041470964307968 3.387299412041688 0 31.67920860893945 0 20.65909570992932 -58.834483061879126 -3.1110260233779883 5.335339592171966 26.951177489234315 3.452854894909512 8.4290465251351 7.336150800298458 5.358536680319001 0 0 0 -16.5528584526348 -58.66812385840026 -1.0631973073726833 -4.983325936189219 25.514713132649284 -3.2541187738460335 -10.024476466789013 9.389056583891165 -4.0094181774339 0 0 0 -0.4457432199219807 -3.218573915394491 0.3014523562521046 -1.957101216310804 -11.684418887524505 1.8868127220963424 0 0 0 -24.348151649019655 30.06372234173967 -32.675875528532366 40.92455504501344 -56.46018869566538 -79.64022017185951 1.2628925754581624 -11.913475931003344 -105.99582168892472 99.26900064896616 49.903422162210894 141.19363795197452 0 0 0 0 0 0 0 0 0 0 0 0 0 0 0 0 0 0 0 0 0 0 0 0 0 0 0 0 0 0 0 0 0 0 0 0 0 0 0 0 0 0 0 0 0 0.8795608353711531 2.4621333358052864 1.984125114837705 0 1.017058013348643 0 0 0 0 0 0 0 0 0 0 20.431914864789398 31.94085848740004 29.883595914284765 -41.461621798817454 -56.47477862196243 79.20542889483204 -1.23496440920236 -11.856282469774818 106.80662907115628 -104.74057287435434 51.36451087012821 -138.78230020310005 0 0 0 0 0 0 0 0 0 0 0 0 0 0 0 0 0 0 0 0 0 0 0 0 0 0 0 0 0 0 0 0 0 0 0 0 0 0 0 0 0 0 0 0 0
0.11528199550955653 -0.21041470964307968 3.436028444427748 0 30.286125663455863 0 20.57808988659822 -57.26839277555978 -2.5277999770613127 5.335339592171966 26.951177489234315 3.452854894909512 7.991474206454368 6.912962753249046 5.2673076480894006 0 0 0 -16.749926000879253 -57.107571768106496 -1.3671344782397032 -4.983325936189219 25.514713132649284 -3.2541187738460335 -9.537789647630024 8.948490308235801 -3.9205140319076173 0 0 0 -0.44555534695860755 -2.7740959131273897 0.29790429790390754 -1.9469838417122722 -10.123795660739116 1.832811420546385 0 0 0 -24.39453284358471 29.707886669138034 -32.64630245583841 40.92455504501344 -56.46018869566538 -79.64022017185951 1.2869248622311915 -11.961652964492297 -105.5829957337834 99.75476720001855 50.41802064051629 141.74796846396197 0 0 0 0 0 0 0 0 0 0 0 0 0 0 0 0 0 0 0 0 0 0 0 0 0 0 0 0 0 0 0 0 0 0 0 0 0 0 0 0 0 0 0 0 0 1.0021228850394028 2.5878991470488164 2.271806541873599 0 1.1338929930063317 0 0 0 0 0 0 0 0 0 0 20.516235159438867 31.584044211574827 29.89022993975132 -41.461621798817454 -56.47477862196243 79.20542889483204 -1.23496440920236 -11.856282469774818 106.80662907115628 -104.74057287435434 51.36451087012821 -138.78230020310005 0 0 0 0 0 0 0 0 0 0 0 0 0 0 0 0 0 0 0 0 0 0 0 0 0 0 0 0 0 0 0 0 0 0 0 0 0 0 0 0 0 0 0 0 0
